<?xml version="1.0" encoding="UTF-8"?>
<svg version="1.1" xmlns="http://www.w3.org/2000/svg" width="191" height="140">
<path d="M0 0 C2.625 2.3125 2.625 2.3125 5.625 8.3125 C10.245 8.3125 14.865 8.3125 19.625 8.3125 C18.965 12.6025 18.305 16.8925 17.625 21.3125 C18.099375 19.353125 18.57375 17.39375 19.0625 15.375 C20.5 9.4375 20.5 9.4375 21.625 8.3125 C23.31108966 8.24044489 25.00000659 8.22863932 26.6875 8.25 C27.60660156 8.25902344 28.52570312 8.26804687 29.47265625 8.27734375 C30.18292969 8.28894531 30.89320312 8.30054687 31.625 8.3125 C31.48269192 9.72952513 31.33599254 11.1461096 31.1875 12.5625 C31.10628906 13.35140625 31.02507812 14.1403125 30.94140625 14.953125 C30.64865007 17.13614639 30.20435581 19.1898182 29.625 21.3125 C30.12 20.8175 30.12 20.8175 30.625 20.3125 C31.285 19.9825 31.945 19.6525 32.625 19.3125 C33.0375 18.405 33.45 17.4975 33.875 16.5625 C35.96645849 12.67836281 37.97108745 10.77186421 41.625 8.3125 C48.10421468 6.46129581 55.00259469 7.66519722 61.625 8.3125 C60.965 12.2725 60.305 16.2325 59.625 20.3125 C63.96576954 18.72650589 63.96576954 18.72650589 64.890625 14.6171875 C65.23558646 13.14446742 65.5631347 11.66758205 65.875 10.1875 C66.04773438 9.43339844 66.22046875 8.67929688 66.3984375 7.90234375 C66.82222184 6.04240139 67.22559024 4.17782855 67.625 2.3125 C66.305 2.3125 64.985 2.3125 63.625 2.3125 C63.955 1.3225 64.285 0.3325 64.625 -0.6875 C66.35307318 -1.02645656 68.08251974 -1.35841525 69.8125 -1.6875 C70.77542969 -1.873125 71.73835938 -2.05875 72.73046875 -2.25 C75.4184206 -2.65627612 77.91271019 -2.76683572 80.625 -2.6875 C79.98075667 0.56281727 79.33432737 3.81269606 78.6875 7.0625 C78.50509766 7.98289062 78.32269531 8.90328125 78.13476562 9.8515625 C77.95751953 10.74101563 77.78027344 11.63046875 77.59765625 12.546875 C77.35414429 13.77229004 77.35414429 13.77229004 77.10571289 15.02246094 C76.66230797 17.13477083 76.16420019 19.222837 75.625 21.3125 C76.12 20.8175 76.12 20.8175 76.625 20.3125 C77.615 19.9825 78.605 19.6525 79.625 19.3125 C79.34397086 22.68484971 78.82128348 24.09889739 76.5 26.625 C72.84572483 28.76990064 70.79659379 28.99512444 66.625 28.3125 C64.1875 25.8125 64.1875 25.8125 62.625 23.3125 C61.75875 24.1375 60.8925 24.9625 60 25.8125 C57.5529167 27.85462862 56.73111533 28.29793515 53.4375 28.75 C50.625 28.3125 50.625 28.3125 47.625 26.3125 C46.965 26.9725 46.305 27.6325 45.625 28.3125 C39.93410967 28.96914119 37.09906443 27.80445273 32.625 24.3125 C31.944375 24.9725 31.26375 25.6325 30.5625 26.3125 C26.93086782 28.78510063 24.9382535 28.79175039 20.625 28.3125 C19.635 27.6525 18.645 26.9925 17.625 26.3125 C16.635 26.9725 15.645 27.6325 14.625 28.3125 C11.0625 28.5625 11.0625 28.5625 7.625 28.3125 C5.625 26.3125 5.625 26.3125 5.375 23.125 C5.63586447 19.14681685 6.39481986 16.07992668 7.625 12.3125 C6.965 12.3125 6.305 12.3125 5.625 12.3125 C5.398125 13.34375 5.17125 14.375 4.9375 15.4375 C3.30791863 21.14681345 -0.46153061 25.03685374 -5.375 28.3125 C-3.725 28.9725 -2.075 29.6325 -0.375 30.3125 C-0.375 29.3225 -0.375 28.3325 -0.375 27.3125 C0.615 27.3125 1.605 27.3125 2.625 27.3125 C2.32250921 30.63989873 1.91265829 32.8752594 0.0625 35.6875 C-3.65364558 38.16493039 -5.95144068 37.87422182 -10.375 37.3125 C-12.36201664 35.38958067 -13.15445819 33.75358362 -14.375 31.3125 C-14.58125 32.116875 -14.7875 32.92125 -15 33.75 C-16.375 36.3125 -16.375 36.3125 -19.3125 37.25 C-22.375 37.3125 -22.375 37.3125 -25.375 35.3125 C-25.6875 32.3125 -25.6875 32.3125 -25.375 29.3125 C-24.715 28.6525 -24.055 27.9925 -23.375 27.3125 C-23.808125 26.91160156 -24.24125 26.51070312 -24.6875 26.09765625 C-27.86059647 22.8584536 -29.82481515 20.45489855 -30 15.8125 C-29.57437141 10.00217479 -27.24997801 6.18747801 -23.125 2.0625 C-15.38265265 -2.86444832 -8.44433969 -4.22216984 0 0 Z M-10.375 1.3125 C-13.74951404 9.02567496 -14.96367271 17.06474337 -16.375 25.3125 C-15.055 24.9825 -13.735 24.6525 -12.375 24.3125 C-11.69988828 21.60602533 -11.03472659 18.89772815 -10.375 16.1875 C-10.18421875 15.42695312 -9.9934375 14.66640625 -9.796875 13.8828125 C-8.7622748 9.59661166 -8.1477289 5.75849099 -8.375 1.3125 C-9.035 1.3125 -9.695 1.3125 -10.375 1.3125 Z M47.625 11.3125 C47.09345258 12.91314843 46.57511647 14.51818874 46.0625 16.125 C45.77246094 17.01832031 45.48242188 17.91164063 45.18359375 18.83203125 C44.37520444 21.42465139 44.37520444 21.42465139 45.625 24.3125 C47.84354707 19.69052694 49.00781159 16.54425837 48.625 11.3125 C48.295 11.3125 47.965 11.3125 47.625 11.3125 Z " fill="#090B06" transform="translate(35.375,102.6875)"/>
<path d="M0 0 C1.37353244 1.00973195 2.73148191 2.04131395 4.06640625 3.1015625 C5.58295268 4.30244768 7.18342164 5.39571859 8.79296875 6.46875 C8.79296875 7.12875 8.79296875 7.78875 8.79296875 8.46875 C6.37674096 7.53098327 4.02030443 6.58583642 1.71484375 5.3984375 C-6.58151854 1.36962847 -18.34585531 0.61554413 -27.20703125 3.46875 C-25.8303125 3.52482422 -25.8303125 3.52482422 -24.42578125 3.58203125 C-7.73522325 4.47616829 -7.73522325 4.47616829 -2.20703125 10.21875 C0.22799776 14.17567214 0.58119383 15.89704452 -0.20703125 20.46875 C-2.00474562 24.44573444 -4.19493509 27.56910897 -7.45703125 30.46875 C-11.38703593 31.89784261 -15.07074775 31.71206079 -19.20703125 31.46875 C-16.9276585 46.46746881 -16.9276585 46.46746881 -8.20703125 58.46875 C-8.70203125 59.95375 -8.70203125 59.95375 -9.20703125 61.46875 C-12.7544821 62.27206767 -16.07085675 62.63071507 -19.70703125 62.65625 C-20.62484375 62.67042969 -21.54265625 62.68460937 -22.48828125 62.69921875 C-25.40255758 62.45217521 -27.56061922 61.68168885 -30.20703125 60.46875 C-29.96806852 43.50239603 -26.428394 27.86408079 -19.20703125 12.46875 C-28.27350162 21.58747668 -32.39962517 31.6416572 -33.20703125 44.46875 C-33.08643959 49.91441531 -32.65589143 55.20579636 -31.20703125 60.46875 C-40.62866804 56.81546226 -46.21203928 52.38405384 -51.20703125 43.46875 C-51.72136719 42.56189453 -51.72136719 42.56189453 -52.24609375 41.63671875 C-55.90451676 33.78991426 -55.54425113 23.21312012 -52.76953125 15.15625 C-48.54540179 6.23203283 -41.32831547 -0.78158249 -32.20703125 -4.53125 C-21.60742584 -8.17486436 -8.97568978 -6.22738122 0 0 Z M-33.20703125 4.46875 C-35.50955353 6.61717545 -35.50955353 6.61717545 -37.20703125 9.46875 C-37.07553299 12.21999253 -37.07553299 12.21999253 -36.20703125 14.46875 C-32.80382191 15.14548447 -32.80382191 15.14548447 -29.20703125 15.46875 C-26.99718874 13.65102196 -26.99718874 13.65102196 -26.83203125 11.09375 C-27.31916025 7.68384703 -28.55148521 6.57756598 -31.20703125 4.46875 C-31.86703125 4.46875 -32.52703125 4.46875 -33.20703125 4.46875 Z M-46.20703125 12.46875 C-43.93267921 19.65091433 -41.17118944 26.5445702 -38.20703125 33.46875 C-37.87703125 33.46875 -37.54703125 33.46875 -37.20703125 33.46875 C-36.222048 26.24553952 -39.43785087 20.51227766 -43.20703125 14.46875 C-44.19703125 13.80875 -45.18703125 13.14875 -46.20703125 12.46875 Z " fill="#79A53F" transform="translate(54.20703125,5.53125)"/>
<path d="M0 0 C0.66 0 1.32 0 2 0 C2.125 6.75 2.125 6.75 1 9 C4.99795892 9.95619733 8.70803922 10.1039592 12.8125 10.0625 C15.8753125 10.0315625 15.8753125 10.0315625 19 10 C18.34 14.29 17.68 18.58 17 23 C17.474375 21.040625 17.94875 19.08125 18.4375 17.0625 C19.875 11.125 19.875 11.125 21 10 C22.68608966 9.92794489 24.37500659 9.91613932 26.0625 9.9375 C26.98160156 9.94652344 27.90070313 9.95554687 28.84765625 9.96484375 C29.55792969 9.97644531 30.26820313 9.98804687 31 10 C29.65591628 30.94916702 29.65591628 30.94916702 23 37 C19.50721152 39.23855989 16.53469775 39.26864481 12.4375 39.25 C11.30183594 39.25515625 10.16617188 39.2603125 8.99609375 39.265625 C6 39 6 39 3 37 C2.625 34.5625 2.625 34.5625 3 32 C4.5 30.1875 4.5 30.1875 6 29 C5.34 28.34 4.68 27.68 4 27 C3.443125 27.48726562 2.88625 27.97453125 2.3125 28.4765625 C-0.37952623 30.25002573 -1.81016271 30.40417534 -5 30.375 C-5.845625 30.38273437 -6.69125 30.39046875 -7.5625 30.3984375 C-10.5315229 29.91311645 -11.92284377 29.17399335 -14 27 C-14.20703125 24.87890625 -14.20703125 24.87890625 -13.8125 22.5625 C-13.69519531 21.80066406 -13.57789063 21.03882812 -13.45703125 20.25390625 C-13 18 -13 18 -12.32421875 15.96484375 C-11.90007416 13.39442531 -12.67497899 12.18238755 -14 10 C-12.98679688 9.67128906 -12.98679688 9.67128906 -11.953125 9.3359375 C-5.89092075 7.18087645 -3.07870079 5.64428478 0 0 Z M0 13 C-1.485 19.435 -1.485 19.435 -3 26 C-1.35 25.67 0.3 25.34 2 25 C2.66 24.01 3.32 23.02 4 22 C4.66 22.33 5.32 22.66 6 23 C6.33 20.03 6.66 17.06 7 14 C4.69 13.67 2.38 13.34 0 13 Z M11 30 C11.99 30.495 11.99 30.495 13 31 C12.67 32.65 12.34 34.3 12 36 C12.99 36 13.98 36 15 36 C15.66 33.36 16.32 30.72 17 28 C14.91571791 28 12.90182036 29.21976601 11 30 Z " fill="#080A06" transform="translate(147,101)"/>
<path d="M0 0 C3.06398451 -0.13530844 6.12197126 -0.2342407 9.1875 -0.3125 C10.05181641 -0.35439453 10.91613281 -0.39628906 11.80664062 -0.43945312 C16.33599494 -0.52622236 18.34546285 -0.49069494 22.07421875 2.3046875 C24 5 24 5 24.625 8.4375 C23.81470649 13.05617298 22.23527148 14.68384673 19 18 C20.01847042 19.66028757 21.06582201 21.30288115 22.125 22.9375 C22.70507812 23.85402344 23.28515625 24.77054688 23.8828125 25.71484375 C26.50663457 28.54682883 28.22139377 28.74844973 32 29 C32.350625 27.845 32.70125 26.69 33.0625 25.5 C35.50169276 18.12321802 38.82775784 11.08322565 42 4 C42.99 4 43.98 4 45 4 C45.28721924 4.71655762 45.57443848 5.43311523 45.87036133 6.17138672 C47.17475884 9.40990902 48.4934212 12.64243137 49.8125 15.875 C50.26431641 17.00292969 50.71613281 18.13085938 51.18164062 19.29296875 C51.84389648 20.90751953 51.84389648 20.90751953 52.51953125 22.5546875 C53.12438354 24.04718018 53.12438354 24.04718018 53.74145508 25.56982422 C54.89683245 28.280602 54.89683245 28.280602 58 30 C58 30.66 58 31.32 58 32 C53.71 32 49.42 32 45 32 C45 31.34 45 30.68 45 30 C45.66 29.67 46.32 29.34 47 29 C47 27.35 47 25.7 47 24 C43.7 24 40.4 24 37 24 C36.505 26.475 36.505 26.475 36 29 C36.99 29.33 37.98 29.66 39 30 C39 30.66 39 31.32 39 32 C23.89706862 33.37608261 23.89706862 33.37608261 19.3828125 30.1015625 C17.64959423 27.80300265 16.28386304 25.57216851 15 23 C13.20180184 19.5739739 13.20180184 19.5739739 9 19 C9 22.3 9 25.6 9 29 C10.32 29.33 11.64 29.66 13 30 C13 30.66 13 31.32 13 32 C8.38 32 3.76 32 -1 32 C-1 31.34 -1 30.68 -1 30 C0.65 29.67 2.3 29.34 4 29 C4 20.42 4 11.84 4 3 C2.68 2.67 1.36 2.34 0 2 C0 1.34 0 0.68 0 0 Z M9 3 C9 7.29 9 11.58 9 16 C14.01535052 15.67039784 14.01535052 15.67039784 18 13 C18.465005 8.94246963 18.465005 8.94246963 18 5 C14.90750101 2.39579032 12.75412086 1.12293957 9 3 Z M41 13 C40.34 15.31 39.68 17.62 39 20 C40.98 20 42.96 20 45 20 C44.01 17.69 43.02 15.38 42 13 C41.67 13 41.34 13 41 13 Z " fill="#6B9435" transform="translate(73,16)"/>
<path d="M0 0 C0.66 0 1.32 0 2 0 C5.00691215 9.58453248 5.52508621 19.44263113 1.2734375 28.71484375 C-1.73049162 34.10533005 -5.46338997 38.81235998 -10 43 C-7.87219421 45.34058637 -5.88437779 46.70700306 -3 48 C-3 48.66 -3 49.32 -3 50 C-7.92100162 49.03509772 -10.84373305 48.0609763 -13.93359375 43.80859375 C-18.59541602 35.90227978 -18.34494847 27.98143617 -18 19 C-17.33613281 18.82984375 -16.67226563 18.6596875 -15.98828125 18.484375 C-8.80959217 16.519391 -8.80959217 16.519391 -3 12 C-0.93445675 8.178745 -0.50385971 4.28280752 0 0 Z " fill="#F38B20" transform="translate(65,20)"/>
<path d="M0 0 C-0.64424333 3.25031727 -1.29067263 6.50019606 -1.9375 9.75 C-2.11990234 10.67039062 -2.30230469 11.59078125 -2.49023438 12.5390625 C-2.66748047 13.42851563 -2.84472656 14.31796875 -3.02734375 15.234375 C-3.18968506 16.05131836 -3.35202637 16.86826172 -3.51928711 17.70996094 C-3.96269203 19.82227083 -4.46079981 21.910337 -5 24 C-4.505 23.505 -4.505 23.505 -4 23 C-3.01 22.67 -2.02 22.34 -1 22 C-1.28102914 25.37234971 -1.80371652 26.78639739 -4.125 29.3125 C-7.77927517 31.45740064 -9.82840621 31.68262444 -14 31 C-16.4375 28.5 -16.4375 28.5 -18 26 C-18.99 26.66 -19.98 27.32 -21 28 C-21 27.34 -21 26.68 -21 26 C-21.66 26 -22.32 26 -23 26 C-23.21192221 20.80790596 -22.5912689 16.873261 -21 12 C-23.64 12 -26.28 12 -29 12 C-29.66 14.97 -30.32 17.94 -31 21 C-31.66 19.68 -32.32 18.36 -33 17 C-33.12117188 17.71027344 -33.24234375 18.42054687 -33.3671875 19.15234375 C-33.61855469 20.53099609 -33.61855469 20.53099609 -33.875 21.9375 C-34.03742188 22.85402344 -34.19984375 23.77054688 -34.3671875 24.71484375 C-34.57601562 25.46894531 -34.78484375 26.22304687 -35 27 C-35.66 27.33 -36.32 27.66 -37 28 C-37.3152595 22.01006953 -36.68219822 18.36439644 -34 13 C-37.01657791 13.14030595 -39.23841273 13.29351465 -41.51171875 15.40234375 C-42.73256066 16.88904235 -43.87246522 18.44134898 -45 20 C-45.66 19.67 -46.32 19.34 -47 19 C-46.11687962 17.86499306 -45.21781145 16.74238693 -44.3125 15.625 C-43.81363281 14.99851562 -43.31476563 14.37203125 -42.80078125 13.7265625 C-40.11796445 11.15431733 -37.766898 10.05063737 -34.0065918 9.94287109 C-31.72510621 10.02590741 -29.46244955 10.1843085 -27.1875 10.375 C-26.00510742 10.46007812 -26.00510742 10.46007812 -24.79882812 10.546875 C-22.86510039 10.68750974 -20.93241405 10.84233888 -19 11 C-19.66 14.96 -20.32 18.92 -21 23 C-16.65923046 21.41400589 -16.65923046 21.41400589 -15.734375 17.3046875 C-15.38941354 15.83196742 -15.0618653 14.35508205 -14.75 12.875 C-14.57726562 12.12089844 -14.40453125 11.36679688 -14.2265625 10.58984375 C-13.80277816 8.72990139 -13.39940976 6.86532855 -13 5 C-14.32 5 -15.64 5 -17 5 C-16.67 4.01 -16.34 3.02 -16 2 C-14.27192682 1.66104344 -12.54248026 1.32908475 -10.8125 1 C-9.84957031 0.814375 -8.88664062 0.62875 -7.89453125 0.4375 C-5.2065794 0.03122388 -2.71228981 -0.07933572 0 0 Z " fill="#070905" transform="translate(116,100)"/>
<path d="M0 0 C-0.66 4.62 -1.32 9.24 -2 14 C2.28029958 10.78977531 2.60203356 10.19135735 3.75 5.3125 C3.99234375 4.31863281 4.2346875 3.32476562 4.484375 2.30078125 C4.65453125 1.54152344 4.8246875 0.78226562 5 0 C7.64 0 10.28 0 13 0 C12.43892825 3.04620468 11.84716788 6.08568287 11.25 9.125 C11.01410156 10.40890625 11.01410156 10.40890625 10.7734375 11.71875 C9.71023959 17.03473953 8.44810767 20.77823568 5 25 C2.4375 26.4375 2.4375 26.4375 0 27 C-0.99 26.67 -1.98 26.34 -3 26 C-2.34 23.36 -1.68 20.72 -1 18 C-4.2234444 19.65063471 -4.2234444 19.65063471 -4.5625 22.5 C-4.7790625 23.7375 -4.7790625 23.7375 -5 25 C-5.66 25.66 -6.32 26.32 -7 27 C-9.125 26.625 -9.125 26.625 -11 26 C-11.33 24.35 -11.66 22.7 -12 21 C-10.68 20.67 -9.36 20.34 -8 20 C-8.66 19.01 -9.32 18.02 -10 17 C-10.61094248 11.656842 -9.89727967 6.27151803 -9 1 C-2.25 0 -2.25 0 0 0 Z " fill="#729C3B" transform="translate(164,112)"/>
<path d="M0 0 C3.80611821 0.80514039 6.44234963 1.528142 9.4375 4.0625 C11.62235442 8.17002631 11.87918717 11.44490096 11 16 C8.86917768 21.03887081 6.13439723 24.77972012 1 27 C0.34 27 -0.32 27 -1 27 C-0.67 27.99 -0.34 28.98 0 30 C3.51190809 31.22969878 3.51190809 31.22969878 7 32 C7 30.68 7 29.36 7 28 C7.99 28 8.98 28 10 28 C9.69750921 31.32739873 9.28765829 33.5627594 7.4375 36.375 C3.72135442 38.85243039 1.42355932 38.56172182 -3 38 C-6.25242082 35.27216318 -6.5348357 32.0934458 -7 28 C-6.34 28 -5.68 28 -5 28 C-4.88406494 27.43490723 -4.76812988 26.86981445 -4.64868164 26.28759766 C-4.12284704 23.73279309 -3.59272705 21.1788964 -3.0625 18.625 C-2.88009766 17.73554687 -2.69769531 16.84609375 -2.50976562 15.9296875 C-2.33251953 15.07890625 -2.15527344 14.228125 -1.97265625 13.3515625 C-1.81031494 12.56604004 -1.64797363 11.78051758 -1.48071289 10.97119141 C-1 9 -1 9 0 7 C0.04022391 4.6670134 0.04320247 2.33293334 0 0 Z " fill="#739E3C" transform="translate(28,102)"/>
<path d="M0 0 C1.8125 1.5625 1.8125 1.5625 3 3 C2.67 3.7425 2.34 4.485 2 5.25 C0.77217129 8.13883312 0.77217129 8.13883312 1 12 C0.69934207 13.92206322 0.36401468 15.83892294 0 17.75 C-0.185625 18.73484375 -0.37125 19.7196875 -0.5625 20.734375 C-0.706875 21.48203125 -0.85125 22.2296875 -1 23 C-0.67 22.34 -0.34 21.68 0 21 C0.66 21 1.32 21 2 21 C1.66466723 24.01799494 1.13434402 25.80881813 -0.625 28.3125 C-3.94506252 30.67149179 -6.01547016 30.56921855 -10 30 C-12.5 28.5 -12.5 28.5 -14 26 C-14.07363657 23.23579657 -13.60619876 20.68931814 -13 18 C-12.7215625 16.7625 -12.7215625 16.7625 -12.4375 15.5 C-12.293125 15.005 -12.14875 14.51 -12 14 C-12.99 14 -13.98 14 -15 14 C-15 13.01 -15 12.02 -15 11 C-12.36 10.67 -9.72 10.34 -7 10 C-7.99 9.34 -8.98 8.68 -10 8 C-10.5 5.0625 -10.5 5.0625 -10 2 C-6.61048026 -1.00214606 -4.2432862 -1.56331597 0 0 Z " fill="#11160B" transform="translate(130,101)"/>
<path d="M0 0 C1.051875 -0.00386719 1.051875 -0.00386719 2.125 -0.0078125 C4 0.125 4 0.125 6 1.125 C6.59355614 3.77360427 6.74209269 6.41697322 7 9.125 C6.01 9.125 5.02 9.125 4 9.125 C3.566875 8.3 3.13375 7.475 2.6875 6.625 C2.130625 5.8 1.57375 4.975 1 4.125 C-2.12635209 3.70753392 -2.12635209 3.70753392 -5 4.125 C-4.83786076 6.54548293 -4.83786076 6.54548293 -4 9.125 C-2.05257217 10.69382088 -2.05257217 10.69382088 0.375 11.75 C3.4165623 13.22619799 5.86825819 14.45196952 8 17.125 C8.5625 20.5 8.5625 20.5 8 24.125 C5.44341834 27.12898345 3.85364143 28.74559971 -0.00390625 29.53515625 C-3.23796687 29.67630121 -5.90829722 29.15816909 -8.9375 28.0625 C-11.83144285 25.34394763 -11.78140783 22.98679505 -12 19.125 C-10.25 19.3125 -10.25 19.3125 -8 20.125 C-7.360625 20.970625 -6.72125 21.81625 -6.0625 22.6875 C-4.23080299 25.41705025 -4.23080299 25.41705025 -1.25 25.4375 C-0.5075 25.334375 0.235 25.23125 1 25.125 C1.33 23.475 1.66 21.825 2 20.125 C1.07767578 19.63580078 1.07767578 19.63580078 0.13671875 19.13671875 C-1.07564453 18.48123047 -1.07564453 18.48123047 -2.3125 17.8125 C-3.11300781 17.38324219 -3.91351563 16.95398438 -4.73828125 16.51171875 C-6.88362659 15.19635157 -8.43383867 14.08765787 -10 12.125 C-10.4375 8.6875 -10.4375 8.6875 -10 5.125 C-7.02065848 1.35116741 -4.73644952 -0.01741342 0 0 Z " fill="#6B9435" transform="translate(168,19.875)"/>
<path d="M0 0 C4.70410729 1.62210596 4.42625921 2.85251842 7 8 C11.62 8 16.24 8 21 8 C20.18619792 11.515625 19.37239583 15.03125 18.55859375 18.546875 C18.06555717 21.59473748 17.92333121 23.17641828 19 26 C15.32653229 28.44897847 13.33643601 28.31537716 9 28 C7 26 7 26 6.75 22.8125 C7.01086447 18.83431685 7.76981986 15.76742668 9 12 C8.34 12 7.68 12 7 12 C6.773125 13.03125 6.54625 14.0625 6.3125 15.125 C4.68291863 20.83431345 0.91346939 24.72435374 -4 28 C-1.525 28.99 -1.525 28.99 1 30 C1 30.33 1 30.66 1 31 C-1.31 30.67 -3.62 30.34 -6 30 C-6.33 28.68 -6.66 27.36 -7 26 C-6.18595703 25.56300781 -6.18595703 25.56300781 -5.35546875 25.1171875 C-0.62220469 22.40515512 2.32721444 20.43655307 4 15 C4.67017935 10.28329473 4.692371 6.49042859 2 2.4375 C1.34 1.633125 0.68 0.82875 0 0 Z " fill="#0B0F08" transform="translate(34,103)"/>
<path d="M0 0 C4.29 0 8.58 0 13 0 C12.67 0.99 12.34 1.98 12 3 C11.34 3 10.68 3 10 3 C11.65 5.64 13.3 8.28 15 11 C16.32 8.36 17.64 5.72 19 3 C18.01 3 17.02 3 16 3 C16 2.01 16 1.02 16 0 C19.96 0 23.92 0 28 0 C27 3 27 3 24.75 4.125 C20.69108483 6.89244216 18.75364726 10.45513085 17 15 C16.62702609 17.82527738 16.73979348 20.1377283 17 23 C18.32 23.66 19.64 24.32 21 25 C21 25.66 21 26.32 21 27 C16.05 27 11.1 27 6 27 C6 26.34 6 25.68 6 25 C7.32 24.34 8.64 23.68 10 23 C10.93764342 15.90069983 8.695705 12.12322334 4.82421875 6.22265625 C3.12027296 3.74414692 3.12027296 3.74414692 0 3 C0 2.01 0 1.02 0 0 Z " fill="#6B9435" transform="translate(126,21)"/>
<path d="M0 0 C-0.26554687 1.09957031 -0.53109375 2.19914062 -0.8046875 3.33203125 C-2.7663522 11.5207762 -4.63524974 19.68579778 -6 28 C-11.55938689 26.07559685 -14.29588473 24.51639515 -17 19 C-17.79177827 14.95313329 -16.94315601 12.44835477 -15 8.9375 C-11.31047213 3.46102132 -6.67038398 0 0 0 Z " fill="#83B149" transform="translate(24,102)"/>
<path d="M0 0 C-1.65 8.25 -3.3 16.5 -5 25 C-4.34 25.33 -3.68 25.66 -3 26 C-4 27 -4 27 -5.8125 27.1328125 C-6.534375 27.13023437 -7.25625 27.12765625 -8 27.125 C-8.721875 27.12757813 -9.44375 27.13015625 -10.1875 27.1328125 C-12 27 -12 27 -13 26 C-13.5291439 20.48705893 -12.77616489 15.4851255 -11.4453125 10.15234375 C-10.80182957 7.04217627 -10.86529586 4.16554738 -11 1 C-7.18939869 0.29105092 -3.91978817 0 0 0 Z " fill="#7CA843" transform="translate(114,102)"/>
<path d="M0 0 C0.99 0 1.98 0 3 0 C3 2.31 3 4.62 3 7 C4.32 7 5.64 7 7 7 C7 4.69 7 2.38 7 0 C12.66666667 0 18.33333333 0 24 0 C24 3.3 24 6.6 24 10 C22.68 10 21.36 10 20 10 C19.67 8.68 19.34 7.36 19 6 C18.34 7.32 17.68 8.64 17 10 C15.68 10 14.36 10 13 10 C12.67 9.01 12.34 8.02 12 7 C11.67 7.99 11.34 8.98 11 10 C7.37 10 3.74 10 0 10 C0 6.7 0 3.4 0 0 Z " fill="#F48B20" transform="translate(135,53)"/>
<path d="M0 0 C3.63 0 7.26 0 11 0 C11 0.99 11 1.98 11 3 C11.66 3 12.32 3 13 3 C13 2.01 13 1.02 13 0 C17.33333333 0 21.66666667 0 26 0 C25.01 3.3 24.02 6.6 23 10 C22.01 10 21.02 10 20 10 C19.34 8.02 18.68 6.04 18 4 C17.67 5.98 17.34 7.96 17 10 C15.68 10 14.36 10 13 10 C13 8.68 13 7.36 13 6 C12.34 6 11.68 6 11 6 C11 7.32 11 8.64 11 10 C10.01 10 9.02 10 8 10 C8 7.69 8 5.38 8 3 C7.34 3 6.68 3 6 3 C6 5.31 6 7.62 6 10 C4.68 10 3.36 10 2 10 C2 7.69 2 5.38 2 3 C1.34 3 0.68 3 0 3 C0 2.01 0 1.02 0 0 Z " fill="#F48B20" transform="translate(106,53)"/>
<path d="M0 0 C1.30210009 2.60420018 0.8132328 3.74270359 0.22265625 6.5703125 C-0.05288086 7.91416016 -0.05288086 7.91416016 -0.33398438 9.28515625 C-0.53314453 10.22230469 -0.73230469 11.15945312 -0.9375 12.125 C-1.13279297 13.06988281 -1.32808594 14.01476562 -1.52929688 14.98828125 C-2.0135432 17.32683666 -2.50401572 19.66391088 -3 22 C-2.34 22 -1.68 22 -1 22 C-1 22.66 -1 23.32 -1 24 C-7.625 24.25 -7.625 24.25 -11 22 C-11.24968964 19.15353811 -11.25832558 16.81287849 -11 14 C-10.93039063 13.20078125 -10.86078125 12.4015625 -10.7890625 11.578125 C-10.43427125 9.16554448 -10.04097071 7.20811968 -9 5 C-6.71167152 3.35681473 -4.75275293 2.83565714 -2 2 C-1.34 1.34 -0.68 0.68 0 0 Z " fill="#7FAC45" transform="translate(146,106)"/>
<path d="M0 0 C1.98 0 3.96 0 6 0 C6 1.32 6 2.64 6 4 C6.66 2.68 7.32 1.36 8 0 C9.65 0 11.3 0 13 0 C13.33 0.99 13.66 1.98 14 3 C14.33 2.01 14.66 1.02 15 0 C16.32 0 17.64 0 19 0 C19 2.31 19 4.62 19 7 C19.99 7 20.98 7 22 7 C22 7.99 22 8.98 22 10 C18.7 10 15.4 10 12 10 C12 9.34 12 8.68 12 8 C11.01 8 10.02 8 9 8 C9 8.66 9 9.32 9 10 C6.03 10 3.06 10 0 10 C0 6.7 0 3.4 0 0 Z M15 6 C16 8 16 8 16 8 Z " fill="#F48B20" transform="translate(84,53)"/>
<path d="M0 0 C1.9453125 -0.29296875 1.9453125 -0.29296875 4.125 -0.1875 C5.40375 -0.125625 6.6825 -0.06375 8 0 C7.35812082 5.13503344 6.31727753 9.9943454 5 15 C5.66 15.33 6.32 15.66 7 16 C6 17 6 17 2.4375 17.0625 C1.303125 17.041875 0.16875 17.02125 -1 17 C-3.21600574 11.78586884 -3.06905312 8.43435334 -2 3 C-1.34 2.01 -0.68 1.02 0 0 Z " fill="#7DA944" transform="translate(87,112)"/>
<path d="M0 0 C-0.99 0.495 -0.99 0.495 -2 1 C-4.02996747 6.4132466 -4.23433319 11.25883676 -4 17 C-10.3833448 17.48176187 -10.3833448 17.48176187 -13 15.4375 C-14.50532657 11.76826649 -14.17386064 9.78243983 -13 6 C-9.36786437 1.45236717 -5.98988344 -0.87656831 0 0 Z " fill="#7FAB46" transform="translate(84,112)"/>
<path d="M0 0 C-0.144375 0.97582031 -0.28875 1.95164062 -0.4375 2.95703125 C-0.623125 4.22933594 -0.80875 5.50164062 -1 6.8125 C-1.185625 8.07707031 -1.37125 9.34164062 -1.5625 10.64453125 C-2.06464492 13.93182508 -2.06464492 13.93182508 -2 17 C-4.64 17 -7.28 17 -10 17 C-11.47193312 14.05613377 -10.84936173 11.62609964 -10.5625 8.375 C-10.46066406 7.18648438 -10.35882813 5.99796875 -10.25390625 4.7734375 C-10.17011719 3.85820313 -10.08632812 2.94296875 -10 2 C-8.7090864 1.66376204 -7.41723903 1.33110751 -6.125 1 C-5.40570313 0.814375 -4.68640625 0.62875 -3.9453125 0.4375 C-2 0 -2 0 0 0 Z " fill="#7EAB44" transform="translate(129,112)"/>
<path d="M0 0 C-0.165 0.969375 -0.33 1.93875 -0.5 2.9375 C-1.05495569 6.70657405 -1.0406102 10.37749882 -0.9375 14.1796875 C-1 16 -1 16 -2 17 C-4.67058851 17.14115161 -7.32432238 17.04247107 -10 17 C-10.11138159 11.54230189 -9.91657981 6.38490641 -9 1 C-2.25 0 -2.25 0 0 0 Z " fill="#7AA543" transform="translate(164,112)"/>
<path d="M0 0 C2.31 0 4.62 0 7 0 C6.9278125 1.05960937 6.855625 2.11921875 6.78125 3.2109375 C6.68746497 4.59895597 6.59371689 5.98697693 6.5 7.375 C6.42845703 8.42300781 6.42845703 8.42300781 6.35546875 9.4921875 C6.09344214 13.2427781 6.09344214 13.2427781 6 17 C3.6739143 17.38063221 1.33944736 17.71269945 -1 18 C-2.62021265 16.37978735 -2.17064712 14.60632066 -2.1875 12.375 C-2.15511637 7.86719813 -1.47585339 4.24307851 0 0 Z " fill="#7EAA44" transform="translate(58,112)"/>
<path d="M0 0 C2.21348038 4.42696077 2.07553697 5.46137357 1.1875 10.125 C0.89939453 11.70667969 0.89939453 11.70667969 0.60546875 13.3203125 C0 16 0 16 -1 18 C-1.66 18 -2.32 18 -3 18 C-3 18.66 -3 19.32 -3 20 C-2.34 20 -1.68 20 -1 20 C-0.67 21.65 -0.34 23.3 0 25 C-3 27 -3 27 -6.125 26.6875 C-9 26 -9 26 -10 25 C-10.1875 22.0625 -10.1875 22.0625 -10 19 C-9.34 18.34 -8.68 17.68 -8 17 C-9.98 14.69 -11.96 12.38 -14 10 C-11 10 -11 10 -8.5 12.4375 C-7.675 13.283125 -6.85 14.12875 -6 15 C-5.01 15.33 -4.02 15.66 -3 16 C-2.01 10.72 -1.02 5.44 0 0 Z " fill="#0B0D08" transform="translate(20,113)"/>
<path d="M0 0 C-0.15597656 0.65226562 -0.31195313 1.30453125 -0.47265625 1.9765625 C-1.58490411 6.97062904 -2.3320153 10.93834187 -1 16 C-3.95664519 17.4783226 -6.74229737 17.06032783 -10 17 C-10.11138159 11.54230189 -9.91657981 6.38490641 -9 1 C-2.25 0 -2.25 0 0 0 Z " fill="#7FAC45" transform="translate(53,112)"/>
<path d="M0 0 C0.33 0.99 0.66 1.98 1 3 C4.51190809 4.22969878 4.51190809 4.22969878 8 5 C8 3.68 8 2.36 8 1 C8.99 1 9.98 1 11 1 C10.69750921 4.32739873 10.28765829 6.5627594 8.4375 9.375 C4.72135442 11.85243039 2.42355932 11.56172182 -2 11 C-5.25242082 8.27216318 -5.5348357 5.0934458 -6 1 C-3.92446352 0.4465236 -2.15634036 0 0 0 Z " fill="#10150B" transform="translate(27,129)"/>
<path d="M0 0 C1.60892302 4.02230755 0.26028279 7.00910451 -1 11 C-1.35371498 12.66246041 -1.69595322 14.32774271 -2 16 C-2.99 15.67 -3.98 15.34 -5 15 C-4.34 12.36 -3.68 9.72 -3 7 C-6.2234444 8.65063471 -6.2234444 8.65063471 -6.5625 11.5 C-6.7790625 12.7375 -6.7790625 12.7375 -7 14 C-7.66 14.66 -8.32 15.32 -9 16 C-11.125 15.625 -11.125 15.625 -13 15 C-13.33 13.35 -13.66 11.7 -14 10 C-12.68 9.67 -11.36 9.34 -10 9 C-10.33 8.01 -10.66 7.02 -11 6 C-7.535 5.505 -7.535 5.505 -4 5 C-4 4.34 -4 3.68 -4 3 C-2 1.375 -2 1.375 0 0 Z " fill="#1E2714" transform="translate(166,123)"/>
<path d="M0 0 C3.625 -0.1875 3.625 -0.1875 7 0 C6.74412595 1.77305664 6.46972261 3.54344608 6.1875 5.3125 C6.03667969 6.29863281 5.88585937 7.28476563 5.73046875 8.30078125 C4.96105847 11.14389623 4.38984417 12.31305118 2 14 C-0.6875 13.6875 -0.6875 13.6875 -3 13 C-3 12.34 -3 11.68 -3 11 C-2.34 10.67 -1.68 10.34 -1 10 C-1.33 9.67 -1.66 9.34 -2 9 C-2.26293056 4.96839809 -2.29404844 3.44107266 0 0 Z M2 2 C1.34 2.66 0.68 3.32 0 4 C0 5.32 0 6.64 0 8 C0.99 8 1.98 8 3 8 C3.33 6.02 3.66 4.04 4 2 C3.34 2 2.68 2 2 2 Z " fill="#88B64B" transform="translate(151,83)"/>
<path d="M0 0 C1.32 0 2.64 0 4 0 C4.33 0.66 4.66 1.32 5 2 C5.33 1.34 5.66 0.68 6 0 C6.99 0 7.98 0 9 0 C9 3.3 9 6.6 9 10 C8.2575 9.814375 7.515 9.62875 6.75 9.4375 C3.77159084 8.77947289 3.77159084 8.77947289 0 10 C0 6.7 0 3.4 0 0 Z M2 5 C3 7 3 7 3 7 Z " fill="#F48B20" transform="translate(160,53)"/>
<path d="M0 0 C0.99 0 1.98 0 3 0 C3 0.99 3 1.98 3 3 C3.66 3 4.32 3 5 3 C5 2.01 5 1.02 5 0 C6.32 0 7.64 0 9 0 C9 3.3 9 6.6 9 10 C7.68 10 6.36 10 5 10 C5 8.68 5 7.36 5 6 C4.34 6 3.68 6 3 6 C3 7.32 3 8.64 3 10 C2.01 10 1.02 10 0 10 C0 6.7 0 3.4 0 0 Z " fill="#F48B20" transform="translate(74,53)"/>
<path d="M0 0 C2.5 0.25 2.5 0.25 4.5 2.25 C5.09179963 6.73076866 4.99773008 8.5863599 2.25 12.25 C-0.5 14.25 -0.5 14.25 -2.75 14.1875 C-4.5 13.25 -4.5 13.25 -5.5 11.25 C-5.44921875 9.15625 -5.44921875 9.15625 -5.1875 6.75 C-5.10886719 5.9559375 -5.03023437 5.161875 -4.94921875 4.34375 C-4.26287768 1.14480379 -3.22668029 0.32266803 0 0 Z M-0.5 2.25 C-2.96823846 5.59401469 -2.96823846 5.59401469 -3.1875 9.5625 C-2.960625 10.119375 -2.73375 10.67625 -2.5 11.25 C-1.18 10.92 0.14 10.59 1.5 10.25 C1.83 7.94 2.16 5.63 2.5 3.25 C1.51 2.92 0.52 2.59 -0.5 2.25 Z " fill="#87B64B" transform="translate(62.5,79.75)"/>
<path d="M0 0 C0.99 0 1.98 0 3 0 C2.01 4.62 1.02 9.24 0 14 C-1.32 14.33 -2.64 14.66 -4 15 C-4.99 14.34 -5.98 13.68 -7 13 C-7.43132515 8.94554358 -7.30019361 7.45029042 -5 4 C-2.375 3.8125 -2.375 3.8125 0 4 C0 2.68 0 1.36 0 0 Z M-3 6 C-5.2773501 8.81509993 -5.2773501 8.81509993 -5 12 C-4.01 12 -3.02 12 -2 12 C-1.67 10.35 -1.34 8.7 -1 7 C-1.66 6.67 -2.32 6.34 -3 6 Z " fill="#88B64B" transform="translate(130,79)"/>
<path d="M0 0 C0.66 0 1.32 0 2 0 C2.33872513 1.41538717 2.67074624 2.83237963 3 4.25 C3.185625 5.03890625 3.37125 5.8278125 3.5625 6.640625 C4 9 4 9 4 13 C3.01 13 2.02 13 1 13 C1 12.01 1 11.02 1 10 C-2.26954202 10.56371414 -3.82575883 11.49962266 -6 14 C-6.33 13.01 -6.66 12.02 -7 11 C-5.63671875 8.30078125 -5.63671875 8.30078125 -3.6875 5.3125 C-3.05199219 4.31863281 -2.41648437 3.32476562 -1.76171875 2.30078125 C-1.18035156 1.54152344 -0.59898438 0.78226562 0 0 Z M-1 5 C-1.33 5.99 -1.66 6.98 -2 8 C-1.01 8 -0.02 8 1 8 C1 7.01 1 6.02 1 5 C0.34 5 -0.32 5 -1 5 Z " fill="#87B54B" transform="translate(36,80)"/>
<path d="M0 0 C2.64 0 5.28 0 8 0 C8.33 0.99 8.66 1.98 9 3 C9.99 2.01 10.98 1.02 12 0 C12 2.64 12 5.28 12 8 C8.7 8 5.4 8 2 8 C2 6.02 2 4.04 2 2 C1.34 2 0.68 2 0 2 C0 1.34 0 0.68 0 0 Z " fill="#000000" transform="translate(179,106)"/>
<path d="M0 0 C0.94875 0.04125 1.8975 0.0825 2.875 0.125 C2.875 3.095 2.875 6.065 2.875 9.125 C0.5625 9.75 0.5625 9.75 -2.125 10.125 C-3.115 9.465 -4.105 8.805 -5.125 8.125 C-5.4375 5.125 -5.4375 5.125 -5.125 2.125 C-3.125 0.125 -3.125 0.125 0 0 Z M-2.125 4.125 C-1.125 6.125 -1.125 6.125 -1.125 6.125 Z " fill="#F48C20" transform="translate(175.125,52.875)"/>
<path d="M0 0 C0.78375 0.04125 1.5675 0.0825 2.375 0.125 C3.32524979 3.82041586 3.32524979 6.42958414 2.375 10.125 C-0.5 10.75 -0.5 10.75 -3.625 11.125 C-4.285 10.465 -4.945 9.805 -5.625 9.125 C-4.99018771 0.23762799 -4.99018771 0.23762799 0 0 Z M-1.625 2.125 C-1.955 2.785 -2.285 3.445 -2.625 4.125 C-1.635 4.125 -0.645 4.125 0.375 4.125 C0.375 3.465 0.375 2.805 0.375 2.125 C-0.285 2.125 -0.945 2.125 -1.625 2.125 Z M-2.625 6.125 C-2.955 6.785 -3.285 7.445 -3.625 8.125 C-2.305 7.795 -0.985 7.465 0.375 7.125 C-0.615 6.795 -1.605 6.465 -2.625 6.125 Z " fill="#87B64B" transform="translate(107.625,82.875)"/>
<path d="M0 0 C0.78375 0.04125 1.5675 0.0825 2.375 0.125 C3.45194171 2.92504844 3.33376997 4.3161574 2.6875 7.3125 C1.375 10.125 1.375 10.125 -0.5625 11.125 C-2.625 11.125 -2.625 11.125 -5.625 9.125 C-4.6356383 0.22074468 -4.6356383 0.22074468 0 0 Z M-1.625 2.125 C-1.625 2.785 -1.625 3.445 -1.625 4.125 C-0.635 3.795 0.355 3.465 1.375 3.125 C0.385 2.795 -0.605 2.465 -1.625 2.125 Z M-2.625 6.125 C-2.625 6.785 -2.625 7.445 -2.625 8.125 C-1.635 7.795 -0.645 7.465 0.375 7.125 C-0.615 6.795 -1.605 6.465 -2.625 6.125 Z " fill="#88B64B" transform="translate(90.625,82.875)"/>
<path d="M0 0 C0.66 0.33 1.32 0.66 2 1 C2.40729228 3.32156597 2.74438677 5.6568787 3 8 C5.31 8 7.62 8 10 8 C9.67 7.67 9.34 7.34 9 7 C8.95936168 5.33382885 8.957279 3.66611905 9 2 C9.33 3.32 9.66 4.64 10 6 C10.66 6 11.32 6 12 6 C11.625 7.9375 11.625 7.9375 11 10 C8.22899606 11.38550197 6.0665294 11.1877467 3 11 C2.01 10.34 1.02 9.68 0 9 C-0.33 9.33 -0.66 9.66 -1 10 C-3.33297433 10.04092937 -5.66705225 10.04241723 -8 10 C-8 9.67 -8 9.34 -8 9 C-7.236875 9 -6.47375 9 -5.6875 9 C-2.8993117 8.29819851 -2.8993117 8.29819851 -2 6.15234375 C-1.25331349 4.11690505 -0.58484471 2.08737258 0 0 Z " fill="#1D2613" transform="translate(83,120)"/>
<path d="M0 0 C3 0.125 3 0.125 4 1.125 C3.91062197 2.65019276 3.75462854 4.17181929 3.5625 5.6875 C3.46066406 6.51378906 3.35882813 7.34007813 3.25390625 8.19140625 C3.17011719 8.82949219 3.08632812 9.46757813 3 10.125 C2.01 10.125 1.02 10.125 0 10.125 C0 7.815 0 5.505 0 3.125 C-0.99 5.435 -1.98 7.745 -3 10.125 C-3.66 10.125 -4.32 10.125 -5 10.125 C-4.85950482 8.64531676 -4.71245174 7.16625484 -4.5625 5.6875 C-4.48128906 4.86378906 -4.40007812 4.04007812 -4.31640625 3.19140625 C-3.8122879 -0.10092222 -3.4407156 0.14336315 0 0 Z " fill="#88B64B" transform="translate(143,82.875)"/>
<path d="M0 0 C1.99954746 -0.04254356 4.00041636 -0.04080783 6 0 C6.33 0.33 6.66 0.66 7 1 C6.91062197 2.52519276 6.75462854 4.04681929 6.5625 5.5625 C6.46066406 6.38878906 6.35882813 7.21507813 6.25390625 8.06640625 C6.17011719 8.70449219 6.08632812 9.34257813 6 10 C5.01 10.33 4.02 10.66 3 11 C3.66 8.03 4.32 5.06 5 2 C1.91330796 5.08669204 1.55144911 5.91927658 1 10 C0.01 10 -0.98 10 -2 10 C-1.34 6.7 -0.68 3.4 0 0 Z " fill="#88B64B" transform="translate(114,83)"/>
<path d="M0 0 C4.84659077 0.59104765 8.60748167 1.97944157 13 4 C12.01 5.32 11.02 6.64 10 8 C6.6875 7.9375 6.6875 7.9375 3 7 C1.40959161 4.71858658 0.83493456 2.70125887 0 0 Z " fill="#7BA842" transform="translate(22,131)"/>
<path d="M0 0 C0.66 0.66 1.32 1.32 2 2 C1.46428571 5.53571429 1.46428571 5.53571429 0 7 C-2.33297433 7.04092937 -4.66705225 7.04241723 -7 7 C-7.6875 5.1875 -7.6875 5.1875 -8 3 C-5.88342359 -0.2924522 -3.7395659 -0.47943153 0 0 Z " fill="#83B147" transform="translate(129,102)"/>
<path d="M0 0 C2.31 0 4.62 0 7 0 C8.15837626 4.05431692 7.83691257 6.21812119 6 10 C5.34 10 4.68 10 4 10 C4.33 7.36 4.66 4.72 5 2 C4.01 2.495 4.01 2.495 3 3 C2.26924352 5.3140622 1.59861742 7.64828869 1 10 C0.34 10 -0.32 10 -1 10 C-0.67 6.7 -0.34 3.4 0 0 Z " fill="#88B64B" transform="translate(43,83)"/>
<path d="M0 0 C0.66 0 1.32 0 2 0 C1.67 2.64 1.34 5.28 1 8 C1.66 7.67 2.32 7.34 3 7 C3.73075648 4.6859378 4.40138258 2.35171131 5 0 C5.99 0 6.98 0 8 0 C7.34 3.3 6.68 6.6 6 10 C1 11 1 11 -1 10 C-1.125 2.25 -1.125 2.25 0 0 Z " fill="#88B74C" transform="translate(70,83)"/>
<path d="M0 0 C0.99 0.66 1.98 1.32 3 2 C2.70926678 4.81042113 2.18436938 5.83347282 0.0625 7.75 C-4.22953927 9.50185276 -8.42266683 9.75916745 -13 9 C-15.29296875 7.64453125 -15.29296875 7.64453125 -17 6 C-17.25 3.3125 -17.25 3.3125 -17 1 C-16.731875 1.61875 -16.46375 2.2375 -16.1875 2.875 C-15.04443152 5.2995233 -15.04443152 5.2995233 -12 7 C-9.67612053 7.39387788 -7.34206251 7.73486085 -5 8 C-5.33 7.01 -5.66 6.02 -6 5 C-5.38125 4.9175 -4.7625 4.835 -4.125 4.75 C-1.81562433 4.18741541 -1.81562433 4.18741541 -0.75 1.9375 C-0.5025 1.298125 -0.255 0.65875 0 0 Z " fill="#000000" transform="translate(150,122)"/>
<path d="M0 0 C0.99 0.33 1.98 0.66 3 1 C3.33 1.99 3.66 2.98 4 4 C3.34 4 2.68 4 2 4 C1.67 5.98 1.34 7.96 1 10 C1.66 10 2.32 10 3 10 C3 10.66 3 11.32 3 12 C2.01 12.33 1.02 12.66 0 13 C-2.11096433 9.52311757 -2.11096433 9.52311757 -1.5625 6.9375 C-1.376875 6.298125 -1.19125 5.65875 -1 5 C-1.33 4.01 -1.66 3.02 -2 2 C-1.34 2 -0.68 2 0 2 C0 1.34 0 0.68 0 0 Z " fill="#89B74C" transform="translate(81,81)"/>
<path d="M0 0 C2.475 0.99 2.475 0.99 5 2 C4.125 5.875 4.125 5.875 3 7 C1.33382885 7.04063832 -0.33388095 7.042721 -2 7 C-2.6875 5.1875 -2.6875 5.1875 -3 3 C-1.5625 1.25 -1.5625 1.25 0 0 Z " fill="#87B54B" transform="translate(14,131)"/>
<path d="M0 0 C0.66 0 1.32 0 2 0 C2 0.66 2 1.32 2 2 C2.66 2 3.32 2 4 2 C4 2.66 4 3.32 4 4 C3.01 4 2.02 4 1 4 C1 4.7425 1 5.485 1 6.25 C1 8.5 1 10.75 1 13 C0.01 12.67 -0.98 12.34 -2 12 C-2 8.7 -2 5.4 -2 2 C-1.34 2 -0.68 2 0 2 C0 1.34 0 0.68 0 0 Z " fill="#88B74C" transform="translate(98,81)"/>
<path d="M0 0 C-0.33 2.97 -0.66 5.94 -1 9 C-1.66 7.68 -2.32 6.36 -3 5 C-3.12117188 5.71027344 -3.24234375 6.42054687 -3.3671875 7.15234375 C-3.53476563 8.07144531 -3.70234375 8.99054688 -3.875 9.9375 C-4.03742188 10.85402344 -4.19984375 11.77054688 -4.3671875 12.71484375 C-4.57601562 13.46894531 -4.78484375 14.22304687 -5 15 C-5.99 15.495 -5.99 15.495 -7 16 C-7.31364748 10.04069781 -6.80867326 6.29326883 -4 1 C-2 0 -2 0 0 0 Z " fill="#0D1109" transform="translate(86,112)"/>
<path d="M0 0 C1.67542976 0.28604898 3.34385343 0.61781233 5 1 C5.33 1.99 5.66 2.98 6 4 C5.67 4.66 5.34 5.32 5 6 C3.35 6 1.7 6 0 6 C-0.38218767 4.34385343 -0.71395102 2.67542976 -1 1 C-0.67 0.67 -0.34 0.34 0 0 Z " fill="#000000" transform="translate(180,51)"/>
<path d="M0 0 C2.18576364 4.37152727 2.11961216 5.44307082 1.3125 10.0625 C1.14363281 11.10535156 0.97476562 12.14820312 0.80078125 13.22265625 C-0.0186422 16.0646566 -0.72203387 17.18641264 -3 19 C-3.66 18.67 -4.32 18.34 -5 18 C-5 17.34 -5 16.68 -5 16 C-4.34 16 -3.68 16 -3 16 C-2.01 10.72 -1.02 5.44 0 0 Z " fill="#13180D" transform="translate(20,113)"/>
<path d="M0 0 C1.98 0.66 3.96 1.32 6 2 C4.52307692 7.66153846 4.52307692 7.66153846 1.875 9.375 C1.25625 9.58125 0.6375 9.7875 0 10 C0.185625 8.906875 0.37125 7.81375 0.5625 6.6875 C1.2578068 3.06375867 1.2578068 3.06375867 0 0 Z " fill="#6B9435" transform="translate(155,12)"/>
<path d="M0 0 C1.67542976 0.28604898 3.34385343 0.61781233 5 1 C4.67 2.32 4.34 3.64 4 5 C2.68 5.33 1.36 5.66 0 6 C-0.38218767 4.34385343 -0.71395102 2.67542976 -1 1 C-0.67 0.67 -0.34 0.34 0 0 Z " fill="#90C251" transform="translate(153,132)"/>
<path d="M0 0 C-0.33533277 3.01799494 -0.86565598 4.80881813 -2.625 7.3125 C-5.83284572 9.5917588 -8.15720211 9.29559984 -12 9 C-12 8.67 -12 8.34 -12 8 C-9.69 7.34 -7.38 6.68 -5 6 C-5 5.01 -5 4.02 -5 3 C-2.55555556 0 -2.55555556 0 0 0 Z " fill="#030402" transform="translate(132,122)"/>
<path d="M0 0 C1.125 3.75 1.125 3.75 0 6 C-0.66 6 -1.32 6 -2 6 C-2 7.98 -2 9.96 -2 12 C-2.66 12 -3.32 12 -4 12 C-4 11.01 -4 10.02 -4 9 C-4.66 9 -5.32 9 -6 9 C-6 8.34 -6 7.68 -6 7 C-5.34 7 -4.68 7 -4 7 C-3.67 6.01 -3.34 5.02 -3 4 C-2.34 3.67 -1.68 3.34 -1 3 C-0.67 2.01 -0.34 1.02 0 0 Z " fill="#040403" transform="translate(23,124)"/>
<path d="M0 0 C0.99 0 1.98 0 3 0 C2.34 3.3 1.68 6.6 1 10 C0.34 10 -0.32 10 -1 10 C-0.67 6.7 -0.34 3.4 0 0 Z " fill="#88B74C" transform="translate(134,83)"/>
<path d="M0 0 C0.33 0.99 0.66 1.98 1 3 C2.65 3.33 4.3 3.66 6 4 C6.33 3.34 6.66 2.68 7 2 C7.99 2.66 8.98 3.32 10 4 C10 4.66 10 5.32 10 6 C3.375 6.25 3.375 6.25 0 4 C0 2.68 0 1.36 0 0 Z " fill="#779E44" transform="translate(135,124)"/>
<path d="M0 0 C0.33 0.99 0.66 1.98 1 3 C1.99 3 2.98 3 4 3 C4 3.66 4 4.32 4 5 C2.02 5.33 0.04 5.66 -2 6 C-1.34 4.02 -0.68 2.04 0 0 Z " fill="#80AE45" transform="translate(165,132)"/>
<path d="M0 0 C2.375 -0.125 2.375 -0.125 5 0 C5.66 0.66 6.32 1.32 7 2 C6.67 2.99 6.34 3.98 6 5 C5.34 5 4.68 5 4 5 C4 4.01 4 3.02 4 2 C2.68 1.67 1.36 1.34 0 1 C0 0.67 0 0.34 0 0 Z " fill="#759F3E" transform="translate(124,102)"/>
<path d="M0 0 C0.66 0 1.32 0 2 0 C1.625 2.4375 1.625 2.4375 1 5 C0.01 5.495 0.01 5.495 -1 6 C-1 5.34 -1 4.68 -1 4 C-1.99 4 -2.98 4 -4 4 C-3.67 3.34 -3.34 2.68 -3 2 C-2.34 2.33 -1.68 2.66 -1 3 C-0.67 2.01 -0.34 1.02 0 0 Z " fill="#000000" transform="translate(113,122)"/>
<path d="M0 0 C3.63 0 7.26 0 11 0 C11 0.33 11 0.66 11 1 C8.36 1 5.72 1 3 1 C3 1.66 3 2.32 3 3 C2.01 3 1.02 3 0 3 C0 2.01 0 1.02 0 0 Z " fill="#000001" transform="translate(115,112)"/>
<path d="M0 0 C0.99 0 1.98 0 3 0 C2.67 0.99 2.34 1.98 2 3 C1.34 3 0.68 3 0 3 C0 2.01 0 1.02 0 0 Z " fill="#89B84C" transform="translate(135,79)"/>
</svg>
